<?xml version="1.0" encoding="UTF-8" standalone="no"?>
<!DOCTYPE svg PUBLIC "-//W3C//DTD SVG 1.1//EN" "http://www.w3.org/Graphics/SVG/1.1/DTD/svg11.dtd">
<svg width="100%" height="100%" viewBox="0 0 64 64" version="1.1" xmlns="http://www.w3.org/2000/svg" xmlns:xlink="http://www.w3.org/1999/xlink" xml:space="preserve" xmlns:serif="http://www.serif.com/" style="fill-rule:evenodd;clip-rule:evenodd;stroke-linejoin:round;stroke-miterlimit:2;">
    <g transform="matrix(1,0,0,1,-2958.07,-1320)">
        <g transform="matrix(1,0,0,1,2907.07,1280)">
            <g transform="matrix(0.0663927,0,0,0.0663927,-5.28831,20.2763)">
                <path d="M1312.01,600.78C1315.66,598.67 1320.16,598.67 1323.82,600.78C1327.47,602.89 1329.72,606.789 1329.72,611.008L1329.72,701.842C1329.72,706.062 1327.47,709.961 1323.82,712.071L1182.2,793.835C1178.55,795.944 1176.29,799.844 1176.29,804.063L1176.29,1249.23C1176.29,1253.45 1174.04,1257.35 1170.39,1259.46C1166.73,1261.57 1162.23,1261.57 1158.58,1259.46L1079.91,1214.04C1076.26,1211.93 1074.01,1208.03 1074.01,1203.81L1074.01,745.008C1074.01,740.788 1076.26,736.889 1079.91,734.779L1312.01,600.78Z" style="fill:rgb(123,173,206);"/>
            </g>
        </g>
        <g transform="matrix(1,0,0,1,2907.07,1280)">
            <g transform="matrix(0.0663927,0,0,0.0663927,-5.28831,20.2763)">
                <path d="M989.188,491.884C985.586,493.964 983.366,497.808 983.366,501.968C983.366,506.129 985.586,509.973 989.188,512.053L1068.19,557.662C1071.79,559.742 1076.23,559.742 1079.83,557.662L1323.9,416.747C1327.51,414.667 1331.94,414.667 1335.55,416.747L1528.48,528.135C1532.08,530.215 1534.3,534.059 1534.3,538.219L1534.3,760.993C1534.3,765.154 1532.08,768.998 1528.48,771.078L1335.55,882.465C1331.94,884.545 1329.72,888.39 1329.72,892.55L1329.72,983.768C1329.72,987.928 1331.94,991.772 1335.55,993.852C1339.15,995.933 1343.59,995.933 1347.19,993.852L1630.76,830.133C1634.36,828.053 1636.58,824.209 1636.58,820.049L1636.58,479.164C1636.58,475.004 1634.36,471.16 1630.76,469.079L1335.55,298.637C1331.94,296.557 1327.51,296.557 1323.9,298.637L989.188,491.884Z" style="fill:rgb(178,178,178);"/>
            </g>
        </g>
        <g transform="matrix(1,0,0,1,2907.07,1280)">
            <g transform="matrix(6.62551,0,0,1.01006,-426.205,-1.04623)">
                <rect x="72.025" y="40.637" width="9.66" height="63.363" style="fill:none;"/>
            </g>
        </g>
    </g>
</svg>
