<?xml version="1.0" encoding="UTF-8" standalone="no"?>
<!DOCTYPE svg PUBLIC "-//W3C//DTD SVG 1.1//EN" "http://www.w3.org/Graphics/SVG/1.1/DTD/svg11.dtd">
<svg width="100%" height="100%" viewBox="0 0 254 64" version="1.1" xmlns="http://www.w3.org/2000/svg" xmlns:xlink="http://www.w3.org/1999/xlink" xml:space="preserve" xmlns:serif="http://www.serif.com/" style="fill-rule:evenodd;clip-rule:evenodd;stroke-linejoin:round;stroke-miterlimit:2;">
    <path d="M30.824,20.164C31.066,20.024 31.365,20.024 31.608,20.164C31.851,20.304 32,20.563 32,20.843L32,26.873C32,27.154 31.851,27.412 31.608,27.553L22.205,32.981C21.963,33.121 21.813,33.38 21.813,33.66L21.813,63.216C21.813,63.496 21.664,63.755 21.421,63.895C21.179,64.035 20.88,64.035 20.637,63.895L15.414,60.88C15.172,60.74 15.022,60.481 15.022,60.2L15.022,29.739C15.022,29.459 15.172,29.2 15.414,29.06L30.824,20.164Z" style="fill:rgb(123,173,206);"/>
    <path d="M9.391,12.934C9.152,13.072 9.004,13.327 9.004,13.603C9.004,13.88 9.152,14.135 9.391,14.273L14.636,17.301C14.875,17.439 15.17,17.439 15.409,17.301L31.613,7.945C31.853,7.807 32.147,7.807 32.387,7.945L45.196,15.341C45.435,15.479 45.582,15.734 45.582,16.01L45.582,30.801C45.582,31.077 45.435,31.332 45.196,31.47L32.387,38.865C32.147,39.004 32,39.259 32,39.535L32,45.591C32,45.867 32.147,46.123 32.387,46.261C32.626,46.399 32.92,46.399 33.16,46.261L51.987,35.391C52.226,35.253 52.373,34.998 52.373,34.721L52.373,12.089C52.373,11.813 52.226,11.558 51.987,11.42L32.387,0.104C32.147,-0.035 31.853,-0.035 31.613,0.104L9.391,12.934Z" style="fill:rgb(178,178,178);"/>
    <path d="M74.167,33.212L71.667,33.212L71.667,11.146L81.6,11.146C83.934,11.146 85.789,11.79 87.167,13.079C88.522,14.368 89.2,16.09 89.2,18.246C89.2,20.424 88.517,22.151 87.15,23.429C85.784,24.707 83.934,25.346 81.6,25.346L74.167,25.346L74.167,33.212ZM74.167,13.512L74.167,23.012L81.434,23.012C83.167,23.012 84.478,22.59 85.367,21.746C86.256,20.901 86.7,19.74 86.7,18.262C86.7,16.785 86.256,15.624 85.367,14.779C84.478,13.935 83.167,13.512 81.434,13.512L74.167,13.512Z" style="fill:rgb(200,200,200);fill-rule:nonzero;"/>
    <path d="M104.867,30.546C103.534,32.501 101.545,33.479 98.9,33.479C96.5,33.479 94.545,32.646 93.034,30.979C91.567,29.335 90.834,27.301 90.834,24.879C90.834,22.457 91.567,20.424 93.034,18.779C94.545,17.112 96.556,16.279 99.067,16.279C101.578,16.279 103.511,17.268 104.867,19.246L104.867,16.546L107.367,16.546L107.367,33.212L104.867,33.212L104.867,30.546ZM99.234,31.212C101.034,31.212 102.456,30.59 103.5,29.346C104.5,28.168 105,26.679 105,24.879C105,23.079 104.5,21.59 103.5,20.412C102.456,19.168 101.034,18.546 99.234,18.546C97.456,18.546 96.011,19.168 94.9,20.412C93.856,21.59 93.334,23.079 93.334,24.879C93.334,26.679 93.856,28.168 94.9,29.346C96.011,30.59 97.456,31.212 99.234,31.212Z" style="fill:rgb(200,200,200);fill-rule:nonzero;"/>
    <rect x="111.7" y="9.879" width="2.5" height="23.333" style="fill:rgb(200,200,200);fill-rule:nonzero;"/>
    <path d="M120.534,30.879L130.534,30.879L130.534,33.212L117.4,33.212L117.4,30.846L127.367,18.846L117.534,18.846L117.534,16.546L130.534,16.546L130.534,18.879L120.534,30.879Z" style="fill:rgb(200,200,200);fill-rule:nonzero;"/>
    <path d="M143.6,21.012C143.378,19.279 141.984,18.412 139.417,18.412C136.85,18.412 135.567,19.212 135.567,20.812C135.567,21.479 135.839,21.985 136.384,22.329C136.928,22.674 137.611,22.957 138.434,23.179C139.256,23.401 140.15,23.607 141.117,23.796C142.084,23.985 142.978,24.251 143.8,24.596C144.622,24.94 145.306,25.412 145.85,26.012C146.395,26.612 146.667,27.435 146.667,28.479C146.667,30.101 146.056,31.34 144.834,32.196C143.611,33.051 141.956,33.479 139.867,33.479C137.645,33.479 135.878,32.924 134.567,31.812C133.367,30.835 132.722,29.557 132.634,27.979L135.234,27.979C135.389,29.512 136.256,30.546 137.834,31.079C138.411,31.257 138.984,31.346 139.55,31.346C140.117,31.346 140.645,31.312 141.134,31.246C141.622,31.179 142.1,31.057 142.567,30.879C143.634,30.457 144.167,29.735 144.167,28.712C144.167,28.024 143.895,27.496 143.35,27.129C142.806,26.762 142.122,26.462 141.3,26.229C140.478,25.996 139.584,25.785 138.617,25.596C137.65,25.407 136.756,25.146 135.934,24.812C135.111,24.479 134.428,24.024 133.884,23.446C133.339,22.868 133.067,22.068 133.067,21.046C133.067,19.535 133.617,18.362 134.717,17.529C135.817,16.696 137.445,16.279 139.6,16.279C141.645,16.279 143.256,16.768 144.434,17.746C145.411,18.568 145.978,19.657 146.134,21.012L143.6,21.012Z" style="fill:rgb(200,200,200);fill-rule:nonzero;"/>
    <path d="M166.8,11.146C168.111,11.146 169.378,11.396 170.6,11.896C171.822,12.396 172.9,13.124 173.834,14.079C175.9,16.19 176.934,18.89 176.934,22.179C176.934,25.468 175.9,28.168 173.834,30.279C172.9,31.235 171.822,31.962 170.6,32.462C169.378,32.962 168.111,33.212 166.8,33.212L157.5,33.212L157.5,11.146L166.8,11.146ZM166.7,30.846C169.011,30.846 170.889,29.99 172.334,28.279C173.734,26.635 174.434,24.601 174.434,22.179C174.434,19.757 173.734,17.724 172.334,16.079C170.889,14.368 169.011,13.512 166.7,13.512L160,13.512L160,30.846L166.7,30.846Z" style="fill:rgb(200,200,200);fill-rule:nonzero;"/>
    <path d="M183.467,33.212L180.967,33.212L180.967,11.146L191.534,11.146C193.778,11.146 195.578,11.768 196.934,13.012C198.289,14.235 198.967,15.912 198.967,18.046C198.967,20.801 197.822,22.679 195.534,23.679C194.889,23.968 194.256,24.179 193.634,24.312L199.434,33.212L196.467,33.212L191.134,24.746L183.467,24.746L183.467,33.212ZM183.467,22.379L191.1,22.379C193.456,22.379 195.078,21.646 195.967,20.179C196.3,19.624 196.467,18.912 196.467,18.046C196.467,16.646 195.989,15.54 195.034,14.729C194.078,13.918 192.811,13.512 191.234,13.512L183.467,13.512L183.467,22.379Z" style="fill:rgb(200,200,200);fill-rule:nonzero;"/>
    <rect x="203.267" y="11.146" width="2.5" height="22.067" style="fill:rgb(200,200,200);fill-rule:nonzero;"/>
    <path d="M229.3,11.146L220.367,33.212L217.5,33.212L208.567,11.146L211.3,11.146L218.934,30.379L226.567,11.146L229.3,11.146Z" style="fill:rgb(200,200,200);fill-rule:nonzero;"/>
    <path d="M234.6,13.546L234.6,20.946L246.867,20.946L246.867,23.379L234.6,23.379L234.6,30.812L248.334,30.812L248.334,33.212L232.1,33.212L232.1,11.146L248.334,11.146L248.334,13.546L234.6,13.546Z" style="fill:rgb(200,200,200);fill-rule:nonzero;"/>
    <path d="M79.95,49.879L78.567,49.879L77.217,46.679L71.75,46.679L70.4,49.879L69.017,49.879L73.7,38.846L75.267,38.846L79.95,49.879ZM76.734,45.529L74.484,40.146L72.234,45.529L76.734,45.529Z" style="fill:rgb(200,200,200);fill-rule:nonzero;"/>
    <path d="M85.884,42.879C86.55,41.901 87.545,41.412 88.867,41.412C90.067,41.412 91.039,41.829 91.784,42.662C92.528,43.485 92.9,44.501 92.9,45.712C92.9,46.924 92.528,47.94 91.784,48.762C91.039,49.596 90.039,50.012 88.784,50.012C87.528,50.012 86.561,49.518 85.884,48.529L85.884,53.179L84.634,53.179L84.634,41.546L85.884,41.546L85.884,42.879ZM88.7,42.546C87.8,42.546 87.089,42.857 86.567,43.479C86.067,44.068 85.817,44.812 85.817,45.712C85.817,46.612 86.067,47.357 86.567,47.946C87.089,48.568 87.8,48.879 88.7,48.879C89.589,48.879 90.311,48.568 90.867,47.946C91.389,47.357 91.65,46.612 91.65,45.712C91.65,44.812 91.389,44.068 90.867,43.479C90.311,42.857 89.589,42.546 88.7,42.546Z" style="fill:rgb(200,200,200);fill-rule:nonzero;"/>
    <path d="M98.25,48.879C99.372,48.879 100.178,48.412 100.667,47.479L102.034,47.479C101.745,48.235 101.286,48.846 100.659,49.312C100.031,49.779 99.222,50.012 98.234,50.012C96.978,50.012 95.956,49.596 95.167,48.762C94.4,47.951 94.017,46.935 94.017,45.712C94.017,44.479 94.384,43.462 95.117,42.662C95.895,41.829 96.906,41.412 98.15,41.412C99.395,41.412 100.406,41.829 101.184,42.662C101.917,43.462 102.284,44.479 102.284,45.712L102.284,46.212L95.3,46.212C95.389,46.979 95.695,47.612 96.217,48.112C96.75,48.624 97.428,48.879 98.25,48.879ZM98.15,42.546C97.384,42.546 96.739,42.785 96.217,43.262C95.728,43.718 95.428,44.312 95.317,45.046L100.984,45.046C100.872,44.312 100.572,43.718 100.084,43.262C99.561,42.785 98.917,42.546 98.15,42.546Z" style="fill:rgb(200,200,200);fill-rule:nonzero;"/>
    <path d="M108.217,41.412L108.217,42.662L108.067,42.662C107.167,42.662 106.434,43.024 105.867,43.746C105.334,44.435 105.067,45.257 105.067,46.212L105.067,49.879L103.817,49.879L103.817,41.546L105.067,41.546L105.067,43.596C105.334,42.729 105.911,42.09 106.8,41.679C107.167,41.501 107.611,41.412 108.134,41.412L108.217,41.412Z" style="fill:rgb(200,200,200);fill-rule:nonzero;"/>
    <path d="M114.467,43.779C114.356,42.912 113.659,42.479 112.375,42.479C111.092,42.479 110.45,42.879 110.45,43.679C110.45,44.012 110.586,44.265 110.859,44.437C111.131,44.61 111.472,44.751 111.884,44.862C112.295,44.974 112.742,45.076 113.225,45.171C113.709,45.265 114.156,45.399 114.567,45.571C114.978,45.743 115.32,45.979 115.592,46.279C115.864,46.579 116,46.99 116,47.512C116,48.324 115.695,48.943 115.084,49.371C114.472,49.799 113.645,50.012 112.6,50.012C111.489,50.012 110.606,49.735 109.95,49.179C109.35,48.69 109.028,48.051 108.984,47.262L110.284,47.262C110.361,48.029 110.795,48.546 111.584,48.812C111.872,48.901 112.159,48.946 112.442,48.946C112.725,48.946 112.989,48.929 113.234,48.896C113.478,48.862 113.717,48.801 113.95,48.712C114.484,48.501 114.75,48.14 114.75,47.629C114.75,47.285 114.614,47.021 114.342,46.837C114.07,46.654 113.728,46.504 113.317,46.387C112.906,46.271 112.459,46.165 111.975,46.071C111.492,45.976 111.045,45.846 110.634,45.679C110.222,45.512 109.881,45.285 109.609,44.996C109.336,44.707 109.2,44.307 109.2,43.796C109.2,43.04 109.475,42.454 110.025,42.037C110.575,41.621 111.389,41.412 112.467,41.412C113.489,41.412 114.295,41.657 114.884,42.146C115.372,42.557 115.656,43.101 115.734,43.779L114.467,43.779Z" style="fill:rgb(200,200,200);fill-rule:nonzero;"/>
    <path d="M121.217,41.412C122.461,41.412 123.472,41.829 124.25,42.662C124.984,43.462 125.35,44.479 125.35,45.712C125.35,46.946 124.984,47.962 124.25,48.762C123.472,49.596 122.461,50.012 121.217,50.012C119.972,50.012 118.961,49.596 118.184,48.762C117.45,47.962 117.084,46.946 117.084,45.712C117.084,44.479 117.45,43.462 118.184,42.662C118.961,41.829 119.972,41.412 121.217,41.412ZM121.217,48.879C122.117,48.879 122.828,48.568 123.35,47.946C123.85,47.357 124.1,46.612 124.1,45.712C124.1,44.812 123.85,44.068 123.35,43.479C122.828,42.857 122.117,42.546 121.217,42.546C120.317,42.546 119.606,42.857 119.084,43.479C118.584,44.068 118.334,44.812 118.334,45.712C118.334,46.612 118.584,47.357 119.084,47.946C119.606,48.568 120.317,48.879 121.217,48.879Z" style="fill:rgb(200,200,200);fill-rule:nonzero;"/>
    <path d="M128.25,41.546L128.25,42.846C128.55,42.446 128.917,42.107 129.35,41.829C129.784,41.551 130.278,41.412 130.834,41.412C131.389,41.412 131.867,41.49 132.267,41.646C132.667,41.801 133.017,42.035 133.317,42.346C134.006,43.024 134.35,43.918 134.35,45.029L134.35,49.879L133.1,49.879L133.1,45.062C133.1,44.296 132.884,43.685 132.45,43.229C132.017,42.774 131.456,42.546 130.767,42.546C130.067,42.546 129.472,42.779 128.984,43.246C128.495,43.724 128.25,44.335 128.25,45.079L128.25,49.879L127,49.879L127,41.546L128.25,41.546Z" style="fill:rgb(200,200,200);fill-rule:nonzero;"/>
    <path d="M142.934,48.546C142.267,49.524 141.272,50.012 139.95,50.012C138.75,50.012 137.772,49.596 137.017,48.762C136.284,47.94 135.917,46.924 135.917,45.712C135.917,44.501 136.284,43.485 137.017,42.662C137.772,41.829 138.778,41.412 140.034,41.412C141.289,41.412 142.256,41.907 142.934,42.896L142.934,41.546L144.184,41.546L144.184,49.879L142.934,49.879L142.934,48.546ZM140.117,48.879C141.017,48.879 141.728,48.568 142.25,47.946C142.75,47.357 143,46.612 143,45.712C143,44.812 142.75,44.068 142.25,43.479C141.728,42.857 141.017,42.546 140.117,42.546C139.228,42.546 138.506,42.857 137.95,43.479C137.428,44.068 137.167,44.812 137.167,45.712C137.167,46.612 137.428,47.357 137.95,47.946C138.506,48.568 139.228,48.879 140.117,48.879Z" style="fill:rgb(200,200,200);fill-rule:nonzero;"/>
    <rect x="146.35" y="38.212" width="1.25" height="11.667" style="fill:rgb(200,200,200);fill-rule:nonzero;"/>
    <path d="M157.167,48.879C157.7,48.879 158.172,48.729 158.584,48.429C158.995,48.129 159.295,47.74 159.484,47.262L160.834,47.262C160.578,48.085 160.111,48.746 159.434,49.246C158.722,49.757 157.878,50.012 156.9,50.012C155.678,50.012 154.684,49.596 153.917,48.762C153.172,47.951 152.8,46.935 152.8,45.712C152.8,44.49 153.172,43.474 153.917,42.662C154.684,41.829 155.678,41.412 156.9,41.412C157.878,41.412 158.722,41.668 159.434,42.179C160.111,42.679 160.578,43.34 160.834,44.162L159.484,44.162C159.295,43.685 158.995,43.296 158.584,42.996C158.172,42.696 157.7,42.546 157.167,42.546C156.634,42.546 156.181,42.629 155.809,42.796C155.436,42.962 155.122,43.19 154.867,43.479C154.322,44.079 154.05,44.824 154.05,45.712C154.05,46.601 154.322,47.346 154.867,47.946C155.422,48.568 156.189,48.879 157.167,48.879Z" style="fill:rgb(200,200,200);fill-rule:nonzero;"/>
    <rect x="162.384" y="38.212" width="1.25" height="11.667" style="fill:rgb(200,200,200);fill-rule:nonzero;"/>
    <path d="M169.417,41.412C170.661,41.412 171.672,41.829 172.45,42.662C173.184,43.462 173.55,44.479 173.55,45.712C173.55,46.946 173.184,47.962 172.45,48.762C171.672,49.596 170.661,50.012 169.417,50.012C168.172,50.012 167.161,49.596 166.384,48.762C165.65,47.962 165.284,46.946 165.284,45.712C165.284,44.479 165.65,43.462 166.384,42.662C167.161,41.829 168.172,41.412 169.417,41.412ZM169.417,48.879C170.317,48.879 171.028,48.568 171.55,47.946C172.05,47.357 172.3,46.612 172.3,45.712C172.3,44.812 172.05,44.068 171.55,43.479C171.028,42.857 170.317,42.546 169.417,42.546C168.517,42.546 167.806,42.857 167.284,43.479C166.784,44.068 166.534,44.812 166.534,45.712C166.534,46.612 166.784,47.357 167.284,47.946C167.806,48.568 168.517,48.879 169.417,48.879Z" style="fill:rgb(200,200,200);fill-rule:nonzero;"/>
    <path d="M181.217,49.879L181.217,48.579C180.917,48.979 180.55,49.318 180.117,49.596C179.684,49.874 179.189,50.012 178.634,50.012C178.078,50.012 177.6,49.935 177.2,49.779C176.8,49.624 176.45,49.39 176.15,49.079C175.461,48.401 175.117,47.507 175.117,46.396L175.117,41.546L176.367,41.546L176.367,46.362C176.367,47.129 176.584,47.74 177.017,48.196C177.45,48.651 178.011,48.879 178.7,48.879C179.4,48.879 179.995,48.646 180.484,48.179C180.972,47.701 181.217,47.09 181.217,46.346L181.217,41.546L182.467,41.546L182.467,49.879L181.217,49.879Z" style="fill:rgb(200,200,200);fill-rule:nonzero;"/>
    <path d="M191.134,48.546C190.467,49.524 189.472,50.012 188.15,50.012C186.95,50.012 185.972,49.596 185.217,48.762C184.484,47.94 184.117,46.924 184.117,45.712C184.117,44.501 184.484,43.485 185.217,42.662C185.972,41.829 186.978,41.412 188.234,41.412C189.489,41.412 190.456,41.907 191.134,42.896L191.134,38.212L192.384,38.212L192.384,49.879L191.134,49.879L191.134,48.546ZM188.317,48.879C189.217,48.879 189.928,48.568 190.45,47.946C190.95,47.357 191.2,46.612 191.2,45.712C191.2,44.812 190.95,44.068 190.45,43.479C189.928,42.857 189.217,42.546 188.317,42.546C187.428,42.546 186.706,42.857 186.15,43.479C185.628,44.068 185.367,44.812 185.367,45.712C185.367,46.612 185.628,47.357 186.15,47.946C186.706,48.568 187.428,48.879 188.317,48.879Z" style="fill:rgb(200,200,200);fill-rule:nonzero;"/>
    <path d="M203,43.779C202.889,42.912 202.192,42.479 200.909,42.479C199.625,42.479 198.984,42.879 198.984,43.679C198.984,44.012 199.12,44.265 199.392,44.437C199.664,44.61 200.006,44.751 200.417,44.862C200.828,44.974 201.275,45.076 201.759,45.171C202.242,45.265 202.689,45.399 203.1,45.571C203.511,45.743 203.853,45.979 204.125,46.279C204.397,46.579 204.534,46.99 204.534,47.512C204.534,48.324 204.228,48.943 203.617,49.371C203.006,49.799 202.178,50.012 201.134,50.012C200.022,50.012 199.139,49.735 198.484,49.179C197.884,48.69 197.561,48.051 197.517,47.262L198.817,47.262C198.895,48.029 199.328,48.546 200.117,48.812C200.406,48.901 200.692,48.946 200.975,48.946C201.259,48.946 201.522,48.929 201.767,48.896C202.011,48.862 202.25,48.801 202.484,48.712C203.017,48.501 203.284,48.14 203.284,47.629C203.284,47.285 203.147,47.021 202.875,46.837C202.603,46.654 202.261,46.504 201.85,46.387C201.439,46.271 200.992,46.165 200.509,46.071C200.025,45.976 199.578,45.846 199.167,45.679C198.756,45.512 198.414,45.285 198.142,44.996C197.87,44.707 197.734,44.307 197.734,43.796C197.734,43.04 198.009,42.454 198.559,42.037C199.109,41.621 199.922,41.412 201,41.412C202.022,41.412 202.828,41.657 203.417,42.146C203.906,42.557 204.189,43.101 204.267,43.779L203,43.779Z" style="fill:rgb(200,200,200);fill-rule:nonzero;"/>
    <path d="M207.034,49.879L207.034,42.646L205.334,42.646L205.334,41.546L207.034,41.546L207.034,38.562L208.284,38.562L208.284,41.546L210.2,41.546L210.2,42.646L208.284,42.646L208.284,49.879L207.034,49.879Z" style="fill:rgb(200,200,200);fill-rule:nonzero;"/>
    <path d="M215.017,41.412C216.261,41.412 217.272,41.829 218.05,42.662C218.784,43.462 219.15,44.479 219.15,45.712C219.15,46.946 218.784,47.962 218.05,48.762C217.272,49.596 216.261,50.012 215.017,50.012C213.772,50.012 212.761,49.596 211.984,48.762C211.25,47.962 210.884,46.946 210.884,45.712C210.884,44.479 211.25,43.462 211.984,42.662C212.761,41.829 213.772,41.412 215.017,41.412ZM215.017,48.879C215.917,48.879 216.628,48.568 217.15,47.946C217.65,47.357 217.9,46.612 217.9,45.712C217.9,44.812 217.65,44.068 217.15,43.479C216.628,42.857 215.917,42.546 215.017,42.546C214.117,42.546 213.406,42.857 212.884,43.479C212.384,44.068 212.134,44.812 212.134,45.712C212.134,46.612 212.384,47.357 212.884,47.946C213.406,48.568 214.117,48.879 215.017,48.879Z" style="fill:rgb(200,200,200);fill-rule:nonzero;"/>
    <path d="M225.2,41.412L225.2,42.662L225.05,42.662C224.15,42.662 223.417,43.024 222.85,43.746C222.317,44.435 222.05,45.257 222.05,46.212L222.05,49.879L220.8,49.879L220.8,41.546L222.05,41.546L222.05,43.596C222.317,42.729 222.895,42.09 223.784,41.679C224.15,41.501 224.595,41.412 225.117,41.412L225.2,41.412Z" style="fill:rgb(200,200,200);fill-rule:nonzero;"/>
    <path d="M232.834,48.546C232.167,49.524 231.172,50.012 229.85,50.012C228.65,50.012 227.672,49.596 226.917,48.762C226.184,47.94 225.817,46.924 225.817,45.712C225.817,44.501 226.184,43.485 226.917,42.662C227.672,41.829 228.678,41.412 229.934,41.412C231.189,41.412 232.156,41.907 232.834,42.896L232.834,41.546L234.084,41.546L234.084,49.879L232.834,49.879L232.834,48.546ZM230.017,48.879C230.917,48.879 231.628,48.568 232.15,47.946C232.65,47.357 232.9,46.612 232.9,45.712C232.9,44.812 232.65,44.068 232.15,43.479C231.628,42.857 230.917,42.546 230.017,42.546C229.128,42.546 228.406,42.857 227.85,43.479C227.328,44.068 227.067,44.812 227.067,45.712C227.067,46.612 227.328,47.357 227.85,47.946C228.406,48.568 229.128,48.879 230.017,48.879Z" style="fill:rgb(200,200,200);fill-rule:nonzero;"/>
    <path d="M242.75,42.879L242.75,41.546L244,41.546L244,49.629C244,50.829 243.659,51.743 242.975,52.371C242.292,52.999 241.372,53.312 240.217,53.312C239.061,53.312 238.159,53.09 237.509,52.646C236.859,52.201 236.417,51.612 236.184,50.879L237.567,50.879C237.922,51.746 238.734,52.179 240,52.179C240.967,52.179 241.667,51.957 242.1,51.512C242.534,51.068 242.75,50.412 242.75,49.546L242.75,48.396C242.072,49.385 241.078,49.879 239.767,49.879C238.567,49.879 237.589,49.468 236.834,48.646C236.1,47.846 235.734,46.846 235.734,45.646C235.734,44.446 236.1,43.446 236.834,42.646C237.589,41.824 238.597,41.412 239.859,41.412C241.12,41.412 242.084,41.901 242.75,42.879ZM239.934,48.746C240.389,48.746 240.795,48.665 241.15,48.504C241.506,48.343 241.811,48.124 242.067,47.846C242.567,47.268 242.817,46.535 242.817,45.646C242.817,44.757 242.567,44.024 242.067,43.446C241.522,42.846 240.811,42.546 239.934,42.546C239.034,42.546 238.311,42.846 237.767,43.446C237.245,44.035 236.984,44.768 236.984,45.646C236.984,46.524 237.245,47.257 237.767,47.846C238.311,48.446 239.034,48.746 239.934,48.746Z" style="fill:rgb(200,200,200);fill-rule:nonzero;"/>
    <path d="M249.884,48.879C251.006,48.879 251.811,48.412 252.3,47.479L253.667,47.479C253.378,48.235 252.92,48.846 252.292,49.312C251.664,49.779 250.856,50.012 249.867,50.012C248.611,50.012 247.589,49.596 246.8,48.762C246.034,47.951 245.65,46.935 245.65,45.712C245.65,44.479 246.017,43.462 246.75,42.662C247.528,41.829 248.539,41.412 249.784,41.412C251.028,41.412 252.039,41.829 252.817,42.662C253.55,43.462 253.917,44.479 253.917,45.712L253.917,46.212L246.934,46.212C247.022,46.979 247.328,47.612 247.85,48.112C248.384,48.624 249.061,48.879 249.884,48.879ZM249.784,42.546C249.017,42.546 248.372,42.785 247.85,43.262C247.361,43.718 247.061,44.312 246.95,45.046L252.617,45.046C252.506,44.312 252.206,43.718 251.717,43.262C251.195,42.785 250.55,42.546 249.784,42.546Z" style="fill:rgb(200,200,200);fill-rule:nonzero;"/>
    <rect x="0" y="0" width="64" height="64" style="fill:none;"/>
</svg>
